<?xml version="1.0" encoding="utf-8"?>
<!-- Generator: Adobe Illustrator 27.5.0, SVG Export Plug-In . SVG Version: 6.00 Build 0)  -->
<svg version="1.1" id="PRINT" xmlns="http://www.w3.org/2000/svg" xmlns:xlink="http://www.w3.org/1999/xlink" x="0px" y="0px"
	 viewBox="0 0 595.28 841.89" style="enable-background:new 0 0 595.28 841.89;" xml:space="preserve">
<rect id="XMLID_3_" x="-14.173" y="-14.173" style="fill:#FFFFFF;" width="623.626" height="870.236"/>
<g>
	
		<linearGradient id="XMLID_00000111890201521647233920000010282420849060090274_" gradientUnits="userSpaceOnUse" x1="463.6383" y1="970.2356" x2="463.6383" y2="-154.162">
		<stop  offset="0" style="stop-color:#56C4F2"/>
		<stop  offset="1" style="stop-color:#345DA8"/>
	</linearGradient>
	
		<rect id="XMLID_22_" x="317.823" y="-14.173" style="fill:url(#XMLID_00000111890201521647233920000010282420849060090274_);" width="291.63" height="870.236"/>
	<polygon style="fill:#2D3D91;" points="609.402,856.063 496.823,856.063 609.653,743.233 	"/>
</g>
<g>
	<g>
		<text id="XMLID_212_" transform="matrix(1 0 0 1 40.5571 355.1479)"><tspan x="0" y="0" style="fill:#363538; font-family:'Montserrat-ExtraBold'; font-size:24.7321px;">Harvey Thresher</tspan><tspan x="0" y="35.252" style="fill:#5C5C5F; font-family:'Montserrat-Regular'; font-size:15.0157px;">personal adviser</tspan></text>
		
			<line style="fill:none;stroke:#363538;stroke-width:1.5;stroke-miterlimit:10;" x1="41.197" y1="369.09" x2="74.363" y2="369.09"/>
	</g>
	<g>
		<g>
			<g>
				<g id="XMLID_125_">
					<text id="XMLID_126_" transform="matrix(1 0 0 1 43.0125 619.3398)"><tspan x="0" y="0" style="fill:#5C5C5F; font-family:'Montserrat-Regular'; font-size:11px;">English</tspan><tspan x="0" y="23.2" style="fill:#5C5C5F; font-family:'Montserrat-Regular'; font-size:11px;">French</tspan><tspan x="0" y="46.4" style="fill:#5C5C5F; font-family:'Montserrat-Regular'; font-size:11px;">German</tspan></text>
				</g>
				<g id="XMLID_116_">
					<path id="XMLID_124_" style="fill:#B5B8BA;" d="M167.61,610.594L167.61,610.594c2.091,0,3.786,1.695,3.786,3.786l0,0
						c0,2.091-1.695,3.786-3.786,3.786l0,0c-2.091,0-3.786-1.695-3.786-3.786l0,0C163.824,612.289,165.519,610.594,167.61,610.594z"
						/>
					<path id="XMLID_123_" style="fill:#B5B8BA;" d="M157.749,610.594L157.749,610.594c2.091,0,3.786,1.695,3.786,3.786l0,0
						c0,2.091-1.695,3.786-3.786,3.786l0,0c-2.091,0-3.786-1.695-3.786-3.786l0,0C153.963,612.289,155.658,610.594,157.749,610.594z
						"/>
					<path id="XMLID_122_" style="fill:#363538;" d="M147.888,610.594L147.888,610.594c2.091,0,3.786,1.695,3.786,3.786l0,0
						c0,2.091-1.695,3.786-3.786,3.786l0,0c-2.091,0-3.786-1.695-3.786-3.786l0,0C144.102,612.289,145.797,610.594,147.888,610.594z
						"/>
					<path id="XMLID_121_" style="fill:#363538;" d="M138.027,610.594L138.027,610.594c2.091,0,3.786,1.695,3.786,3.786l0,0
						c0,2.091-1.695,3.786-3.786,3.786l0,0c-2.091,0-3.786-1.695-3.786-3.786l0,0C134.242,612.289,135.937,610.594,138.027,610.594z
						"/>
					<path id="XMLID_120_" style="fill:#363538;" d="M128.167,610.594L128.167,610.594c2.091,0,3.786,1.695,3.786,3.786l0,0
						c0,2.091-1.695,3.786-3.786,3.786l0,0c-2.091,0-3.786-1.695-3.786-3.786l0,0C124.381,612.289,126.076,610.594,128.167,610.594z
						"/>
					<path id="XMLID_119_" style="fill:#363538;" d="M118.306,610.594L118.306,610.594c2.091,0,3.786,1.695,3.786,3.786l0,0
						c0,2.091-1.695,3.786-3.786,3.786h0c-2.091,0-3.786-1.695-3.786-3.786l0,0C114.52,612.289,116.215,610.594,118.306,610.594z"/>
					<path id="XMLID_118_" style="fill:#363538;" d="M108.445,610.594L108.445,610.594c2.091,0,3.786,1.695,3.786,3.786l0,0
						c0,2.091-1.695,3.786-3.786,3.786l0,0c-2.091,0-3.786-1.695-3.786-3.786l0,0C104.659,612.289,106.354,610.594,108.445,610.594z
						"/>
					<path id="XMLID_117_" style="fill:#363538;" d="M98.584,610.594L98.584,610.594c2.091,0,3.786,1.695,3.786,3.786l0,0
						c0,2.091-1.695,3.786-3.786,3.786l0,0c-2.091,0-3.786-1.695-3.786-3.786l0,0C94.798,612.289,96.493,610.594,98.584,610.594z"/>
				</g>
				<g id="XMLID_85_">
					<path id="XMLID_115_" style="fill:#B5B8BA;" d="M167.61,634.469L167.61,634.469c2.091,0,3.786,1.695,3.786,3.786l0,0
						c0,2.091-1.695,3.786-3.786,3.786l0,0c-2.091,0-3.786-1.695-3.786-3.786l0,0C163.824,636.164,165.519,634.469,167.61,634.469z"
						/>
					<path id="XMLID_93_" style="fill:#B5B8BA;" d="M157.749,634.469L157.749,634.469c2.091,0,3.786,1.695,3.786,3.786l0,0
						c0,2.091-1.695,3.786-3.786,3.786l0,0c-2.091,0-3.786-1.695-3.786-3.786l0,0C153.963,636.164,155.658,634.469,157.749,634.469z
						"/>
					<path id="XMLID_92_" style="fill:#B5B8BA;" d="M147.888,634.469L147.888,634.469c2.091,0,3.786,1.695,3.786,3.786l0,0
						c0,2.091-1.695,3.786-3.786,3.786l0,0c-2.091,0-3.786-1.695-3.786-3.786l0,0C144.102,636.164,145.797,634.469,147.888,634.469z
						"/>
					<path id="XMLID_91_" style="fill:#B5B8BA;" d="M138.027,634.469L138.027,634.469c2.091,0,3.786,1.695,3.786,3.786l0,0
						c0,2.091-1.695,3.786-3.786,3.786l0,0c-2.091,0-3.786-1.695-3.786-3.786l0,0C134.242,636.164,135.937,634.469,138.027,634.469z
						"/>
					<path id="XMLID_90_" style="fill:#363538;" d="M128.167,634.469L128.167,634.469c2.091,0,3.786,1.695,3.786,3.786l0,0
						c0,2.091-1.695,3.786-3.786,3.786l0,0c-2.091,0-3.786-1.695-3.786-3.786l0,0C124.381,636.164,126.076,634.469,128.167,634.469z
						"/>
					<path id="XMLID_89_" style="fill:#363538;" d="M118.306,634.469L118.306,634.469c2.091,0,3.786,1.695,3.786,3.786l0,0
						c0,2.091-1.695,3.786-3.786,3.786h0c-2.091,0-3.786-1.695-3.786-3.786l0,0C114.52,636.164,116.215,634.469,118.306,634.469z"/>
					<path id="XMLID_88_" style="fill:#363538;" d="M108.445,634.469L108.445,634.469c2.091,0,3.786,1.695,3.786,3.786l0,0
						c0,2.091-1.695,3.786-3.786,3.786l0,0c-2.091,0-3.786-1.695-3.786-3.786l0,0C104.659,636.164,106.354,634.469,108.445,634.469z
						"/>
					<path id="XMLID_87_" style="fill:#363538;" d="M98.584,634.469L98.584,634.469c2.091,0,3.786,1.695,3.786,3.786l0,0
						c0,2.091-1.695,3.786-3.786,3.786l0,0c-2.091,0-3.786-1.695-3.786-3.786l0,0C94.798,636.164,96.493,634.469,98.584,634.469z"/>
				</g>
				<g id="XMLID_73_">
					<path id="XMLID_84_" style="fill:#B5B8BA;" d="M167.61,658.343L167.61,658.343c2.091,0,3.786,1.695,3.786,3.786l0,0
						c0,2.091-1.695,3.786-3.786,3.786l0,0c-2.091,0-3.786-1.695-3.786-3.786l0,0C163.824,660.038,165.519,658.343,167.61,658.343z"
						/>
					<path id="XMLID_82_" style="fill:#363538;" d="M157.749,658.343L157.749,658.343c2.091,0,3.786,1.695,3.786,3.786l0,0
						c0,2.091-1.695,3.786-3.786,3.786l0,0c-2.091,0-3.786-1.695-3.786-3.786l0,0C153.963,660.038,155.658,658.343,157.749,658.343z
						"/>
					<path id="XMLID_80_" style="fill:#363538;" d="M147.888,658.343L147.888,658.343c2.091,0,3.786,1.695,3.786,3.786l0,0
						c0,2.091-1.695,3.786-3.786,3.786l0,0c-2.091,0-3.786-1.695-3.786-3.786l0,0C144.102,660.038,145.797,658.343,147.888,658.343z
						"/>
					<path id="XMLID_79_" style="fill:#363538;" d="M138.027,658.343L138.027,658.343c2.091,0,3.786,1.695,3.786,3.786l0,0
						c0,2.091-1.695,3.786-3.786,3.786l0,0c-2.091,0-3.786-1.695-3.786-3.786l0,0C134.242,660.038,135.937,658.343,138.027,658.343z
						"/>
					<path id="XMLID_78_" style="fill:#363538;" d="M128.167,658.343L128.167,658.343c2.091,0,3.786,1.695,3.786,3.786l0,0
						c0,2.091-1.695,3.786-3.786,3.786l0,0c-2.091,0-3.786-1.695-3.786-3.786l0,0C124.381,660.038,126.076,658.343,128.167,658.343z
						"/>
					<path id="XMLID_77_" style="fill:#363538;" d="M118.306,658.343L118.306,658.343c2.091,0,3.786,1.695,3.786,3.786l0,0
						c0,2.091-1.695,3.786-3.786,3.786h0c-2.091,0-3.786-1.695-3.786-3.786l0,0C114.52,660.038,116.215,658.343,118.306,658.343z"/>
					<path id="XMLID_76_" style="fill:#363538;" d="M108.445,658.343L108.445,658.343c2.091,0,3.786,1.695,3.786,3.786l0,0
						c0,2.091-1.695,3.786-3.786,3.786l0,0c-2.091,0-3.786-1.695-3.786-3.786l0,0C104.659,660.038,106.354,658.343,108.445,658.343z
						"/>
					<path id="XMLID_74_" style="fill:#363538;" d="M98.584,658.343L98.584,658.343c2.091,0,3.786,1.695,3.786,3.786l0,0
						c0,2.091-1.695,3.786-3.786,3.786l0,0c-2.091,0-3.786-1.695-3.786-3.786l0,0C94.798,660.038,96.493,658.343,98.584,658.343z"/>
				</g>
			</g>
			<g>
				
					<text id="XMLID_30_" transform="matrix(1 0 0 1 43.0128 588.1785)" style="fill:#363538; font-family:'Montserrat-SemiBold'; font-size:15.7211px;">LANGUAGES</text>
				
					<line style="fill:none;stroke:#363538;stroke-width:1.5;stroke-miterlimit:10;" x1="43.674" y1="594.958" x2="76.84" y2="594.958"/>
			</g>
		</g>
		<g>
			<g>
				
					<text id="XMLID_48_" transform="matrix(1 0 0 1 46.0588 705.644)" style="fill:#363538; font-family:'Montserrat-SemiBold'; font-size:15.7211px;">CONTACT</text>
				
					<line style="fill:none;stroke:#363538;stroke-width:1.5;stroke-miterlimit:10;" x1="46.72" y1="712.424" x2="79.886" y2="712.424"/>
			</g>
			<g>
				<text id="XMLID_139_" transform="matrix(1 0 0 1 82.5419 747.2422)"><tspan x="0" y="0" style="fill:#5C5C5F; font-family:'Montserrat-Regular'; font-size:11px;">432 22114 753</tspan><tspan x="0" y="23.2" style="fill:#5C5C5F; font-family:'Montserrat-Regular'; font-size:11px;">harveythresher@mail.com</tspan><tspan x="0" y="46.4" style="fill:#5C5C5F; font-family:'Montserrat-Regular'; font-size:11px;">94 Briarwood Drive</tspan></text>
				<path style="fill:#5C5C5F;" d="M48.266,750.981h10.178v-15.495l0,0H48.266V750.981z M53.355,750.177
					c-0.463,0-0.839-0.376-0.839-0.839c0-0.464,0.376-0.839,0.839-0.839c0.464,0,0.839,0.376,0.839,0.839
					C54.194,749.801,53.818,750.177,53.355,750.177z M49.168,747.491v-10.909h8.373v10.909H49.168z"/>
				<path id="XMLID_75_" style="fill:#5C5C5F;" d="M53.773,782.169c-0.138-0.009-0.278-0.014-0.418-0.014
					c-0.141,0-0.28,0.005-0.418,0.014c-4.095,0.277-6.38,4.903-4.328,8.457l1.692,2.93l3.055,5.291l3.055-5.291l1.692-2.93
					C60.153,787.072,57.868,782.446,53.773,782.169z M53.355,791.321c-2.048,0-3.708-1.66-3.708-3.708
					c0-2.048,1.66-3.708,3.708-3.708c2.048,0,3.708,1.66,3.708,3.708C57.063,789.661,55.403,791.321,53.355,791.321z"/>
				<polygon id="XMLID_317_" style="fill:#5C5C5F;" points="46.059,761.136 46.059,761.136 46.059,761.136 				"/>
				<polygon id="XMLID_318_" style="fill:#5C5C5F;" points="60.257,761.136 53.158,768.325 46.059,761.136 46.059,761.136 				"/>
				<polygon id="XMLID_23_" style="fill:#5C5C5F;" points="53.158,769.75 54.382,768.51 60.257,762.56 60.257,771.435 
					46.059,771.435 46.059,762.56 51.934,768.51 				"/>
				<path id="XMLID_320_" style="fill:#5C5C5F;" d="M46.059,761.136L46.059,761.136h14.198l-7.099,7.189L46.059,761.136
					L46.059,761.136z"/>
			</g>
		</g>
		<g>
			<g>
				
					<text id="XMLID_2_" transform="matrix(1 0 0 1 43.0128 455.1807)" style="fill:#363538; font-family:'Montserrat-SemiBold'; font-size:15.7211px;">ABOUT ME</text>
				
					<line style="fill:none;stroke:#363538;stroke-width:1.5;stroke-miterlimit:10;" x1="43.674" y1="461.961" x2="76.84" y2="461.961"/>
			</g>
			<g id="XMLID_50_">
				<text transform="matrix(1 0 0 1 43.0126 481.5855)"><tspan x="0" y="0" style="fill:#5C5C5F; font-family:'Montserrat-Regular'; font-size:11px;">Lorem ipsum dolor sit amet consectetuer</tspan><tspan x="0" y="17.2" style="fill:#5C5C5F; font-family:'Montserrat-Regular'; font-size:11px;">adipiscing elit sed diam nonummy nih et</tspan><tspan x="0" y="34.4" style="fill:#5C5C5F; font-family:'Montserrat-Regular'; font-size:11px;">ismod tincidunt ut laoreets dolore magna</tspan><tspan x="0" y="51.6" style="fill:#5C5C5F; font-family:'Montserrat-Regular'; font-size:11px;">aliquam erat volutpat. Ut wisi enim ad mi</tspan><tspan x="0" y="68.8" style="fill:#5C5C5F; font-family:'Montserrat-Regular'; font-size:11px;">nim veniam, quis nostrud.</tspan></text>
			</g>
		</g>
	</g>
</g>
<g>
	<rect x="46.059" y="46.446" style="fill:#B5B8BA;" width="203.294" height="233.607"/>
	<g>
		<path style="fill:#FFFFFF;" d="M166.13,149.225h-7.399l-0.554-3.045c-0.292-1.608-1.693-2.776-3.327-2.776h-14.29
			c-1.634,0-3.034,1.169-3.327,2.776l-0.554,3.045h-7.399c-2.777,0-5.028,2.251-5.028,5.028v23.815c0,2.777,2.251,5.028,5.028,5.028
			h36.849c2.777,0,5.028-2.251,5.028-5.028v-23.815C171.158,151.476,168.907,149.225,166.13,149.225z M147.706,176.922
			c-5.934,0-10.761-4.827-10.761-10.761c0-5.934,4.827-10.761,10.761-10.761c5.934,0,10.761,4.827,10.761,10.761
			C158.467,172.094,153.64,176.922,147.706,176.922z"/>
	</g>
</g>
<g>
	<g>
		<g id="XMLID_298_">
			<text id="XMLID_299_" transform="matrix(1 0 0 1 353.5884 115.8527)"><tspan x="0" y="0" style="fill:#FFFFFF; font-family:'Montserrat-ExtraBold'; font-size:11px;">2000-2002</tspan><tspan x="61.709" y="0" style="fill:#FFFFFF; font-family:'Montserrat-Regular'; font-size:11px;"> Lorem Ipsum ut labore et</tspan><tspan x="0" y="17.2" style="fill:#FFFFFF; font-family:'Montserrat-Regular'; font-size:11px;">dolore magna ut ugiat nulla pariatur.</tspan><tspan x="0" y="34.4" style="fill:#FFFFFF; font-family:'Montserrat-Regular'; font-size:11px;">Excepteur sint non.</tspan></text>
		</g>
		<g id="XMLID_289_">
			<text id="XMLID_296_" transform="matrix(1 0 0 1 353.5884 181.0692)"><tspan x="0" y="0" style="fill:#FFFFFF; font-family:'Montserrat-ExtraBold'; font-size:11px;">2006-2008</tspan><tspan x="62.083" y="0" style="fill:#FFFFFF; font-family:'Montserrat-Bold'; font-size:11px;"> </tspan><tspan x="65.196" y="0" style="fill:#FFFFFF; font-family:'Montserrat-Regular'; font-size:11px;">Lorem Ipsum Incididunt</tspan><tspan x="0" y="17.2" style="fill:#FFFFFF; font-family:'Montserrat-Regular'; font-size:11px;">ut labore et dolore magna ut ugiat</tspan><tspan x="0" y="34.4" style="fill:#FFFFFF; font-family:'Montserrat-Regular'; font-size:11px;">nulla pariatur excepteur sint non.</tspan></text>
		</g>
		<g id="XMLID_61_">
			<text id="XMLID_62_" transform="matrix(1 0 0 1 353.5884 246.2859)"><tspan x="0" y="0" style="fill:#FFFFFF; font-family:'Montserrat-ExtraBold'; font-size:11px;">2009-2010</tspan><tspan x="59.18" y="0" style="fill:#FFFFFF; font-family:'Montserrat-Bold'; font-size:11px;"> </tspan><tspan x="62.292" y="0" style="fill:#FFFFFF; font-family:'Montserrat-Regular'; font-size:11px;">Lorem Ipsum Incididunt</tspan><tspan x="0" y="17.2" style="fill:#FFFFFF; font-family:'Montserrat-Regular'; font-size:11px;">ut labore et dolore magna ut ugiat</tspan><tspan x="0" y="34.4" style="fill:#FFFFFF; font-family:'Montserrat-Regular'; font-size:11px;">nulla pariat sint non.</tspan></text>
		</g>
	</g>
	<g>
		<g>
			<g id="XMLID_305_">
				<linearGradient id="SVGID_1_" gradientUnits="userSpaceOnUse" x1="209.1178" y1="68.415" x2="649.5929" y2="68.415">
					<stop  offset="0" style="stop-color:#FFCF2A"/>
					<stop  offset="1" style="stop-color:#CD0C62"/>
				</linearGradient>
				<rect x="288.882" y="46.446" style="fill:url(#SVGID_1_);" width="270.353" height="43.937"/>
			</g>
			<g id="XMLID_303_">
				
					<text transform="matrix(1 0 0 1 354.9702 75.7845)" style="fill:#FFFFFF; font-family:'Montserrat-SemiBold'; font-size:15.7211px;">Education</text>
			</g>
		</g>
		
			<linearGradient id="SVGID_00000163049572406627683440000004876107687494786694_" gradientUnits="userSpaceOnUse" x1="303.3529" y1="142.9411" x2="303.3529" y2="86.2415">
			<stop  offset="0" style="stop-color:#FFCF2A"/>
			<stop  offset="1" style="stop-color:#CD0C62"/>
		</linearGradient>
		<polygon style="fill:url(#SVGID_00000163049572406627683440000004876107687494786694_);" points="288.882,90.384 317.823,110.882 
			317.823,90.384 		"/>
		<rect x="317.823" y="90.384" style="opacity:0.45;fill:#2D3D91;" width="231.529" height="6.381"/>
	</g>
</g>
<g>
	<g id="XMLID_53_">
		<g>
			<g id="XMLID_00000167382885550975015900000008063883051109606327_">
				<text id="XMLID_00000078044144099035239060000013398213975143333047_" transform="matrix(1 0 0 1 353.5884 388.5724)"><tspan x="0" y="0" style="fill:#FFFFFF; font-family:'Montserrat-ExtraBold'; font-size:11px;">2010-2012</tspan><tspan x="55.55" y="0" style="fill:#FFFFFF; font-family:'Montserrat-Regular'; font-size:11px;"> Lorem Ipsum ut labore et</tspan><tspan x="0" y="17.2" style="fill:#FFFFFF; font-family:'Montserrat-Regular'; font-size:11px;">dolore magna ut ugiat nulla pariatur.</tspan><tspan x="0" y="34.4" style="fill:#FFFFFF; font-family:'Montserrat-Regular'; font-size:11px;">Excepteur sint non.</tspan></text>
			</g>
			<g id="XMLID_00000016774827565100827140000015428355648559939497_">
				<text id="XMLID_00000100380376917837458000000011531135462825787026_" transform="matrix(1 0 0 1 353.5884 453.7889)"><tspan x="0" y="0" style="fill:#FFFFFF; font-family:'Montserrat-ExtraBold'; font-size:11px;">2012-2016</tspan><tspan x="55.154" y="0" style="fill:#FFFFFF; font-family:'Montserrat-Bold'; font-size:11px;"> </tspan><tspan x="58.267" y="0" style="fill:#FFFFFF; font-family:'Montserrat-Regular'; font-size:11px;">Lorem Ipsum Incididunt</tspan><tspan x="0" y="17.2" style="fill:#FFFFFF; font-family:'Montserrat-Regular'; font-size:11px;">ut labore et dolore magna ut ugiat</tspan><tspan x="0" y="34.4" style="fill:#FFFFFF; font-family:'Montserrat-Regular'; font-size:11px;">nulla pariatur excepteur sint non.</tspan></text>
			</g>
		</g>
	</g>
	<g>
		<g>
			<g id="XMLID_59_">
				
					<linearGradient id="SVGID_00000065063949841101682670000000531196568181069455_" gradientUnits="userSpaceOnUse" x1="209.1178" y1="340.3744" x2="649.5929" y2="340.3744">
					<stop  offset="0" style="stop-color:#FFCF2A"/>
					<stop  offset="1" style="stop-color:#CD0C62"/>
				</linearGradient>
				
					<rect x="288.882" y="318.406" style="fill:url(#SVGID_00000065063949841101682670000000531196568181069455_);" width="270.353" height="43.937"/>
			</g>
			<g id="XMLID_51_">
				
					<text transform="matrix(1 0 0 1 354.9702 347.7438)" style="fill:#FFFFFF; font-family:'Montserrat-SemiBold'; font-size:15.7211px;">work experience</text>
			</g>
		</g>
		
			<linearGradient id="SVGID_00000066514467203410194600000001333151510269906098_" gradientUnits="userSpaceOnUse" x1="303.3529" y1="393.5294" x2="303.3529" y2="360.8676">
			<stop  offset="0" style="stop-color:#FFCF2A"/>
			<stop  offset="1" style="stop-color:#CD0C62"/>
		</linearGradient>
		<polygon style="fill:url(#SVGID_00000066514467203410194600000001333151510269906098_);" points="288.882,362.343 
			317.823,382.842 317.823,362.343 		"/>
		<rect x="317.823" y="362.343" style="opacity:0.45;fill:#2D3D91;" width="231.529" height="6.381"/>
	</g>
</g>
<g>
	<g>
		<g>
			<g id="XMLID_64_">
				
					<linearGradient id="SVGID_00000044885002838630208320000018404440763317994677_" gradientUnits="userSpaceOnUse" x1="209.1178" y1="530.1334" x2="649.5929" y2="530.1334">
					<stop  offset="0" style="stop-color:#FFCF2A"/>
					<stop  offset="1" style="stop-color:#CD0C62"/>
				</linearGradient>
				
					<rect x="288.882" y="508.165" style="fill:url(#SVGID_00000044885002838630208320000018404440763317994677_);" width="270.353" height="43.937"/>
			</g>
			<g id="XMLID_58_">
				
					<text transform="matrix(1 0 0 1 354.9702 537.5028)" style="fill:#FFFFFF; font-family:'Montserrat-SemiBold'; font-size:15.7211px;">skills</text>
			</g>
		</g>
		
			<linearGradient id="SVGID_00000165929407279933136030000016760060992474930874_" gradientUnits="userSpaceOnUse" x1="303.3529" y1="581.2941" x2="303.3529" y2="555.5317">
			<stop  offset="0" style="stop-color:#FFCF2A"/>
			<stop  offset="1" style="stop-color:#CD0C62"/>
		</linearGradient>
		<polygon style="fill:url(#SVGID_00000165929407279933136030000016760060992474930874_);" points="288.882,552.102 
			317.823,572.601 317.823,552.102 		"/>
		<rect x="317.823" y="552.102" style="opacity:0.45;fill:#2D3D91;" width="231.529" height="6.381"/>
	</g>
	<g>
		<g>
			<path style="fill:#FFFFFF;" d="M428.603,586.858c-8.833-8.833-21.037-14.297-34.516-14.297h0l0,0
				c-26.959,0-48.813,21.854-48.813,48.813v0c0,26.959,21.854,48.813,48.813,48.813h0c26.958,0,48.813-21.854,48.813-48.813v0
				C442.9,607.894,437.436,595.691,428.603,586.858z M426.693,621.373c0,18.008-14.598,32.606-32.606,32.606h0
				c-18.008,0-32.606-14.598-32.606-32.606v0c0-18.007,14.598-32.605,32.606-32.605l0,0h0c9.004,0,17.155,3.649,23.056,9.55
				C423.043,604.218,426.693,612.37,426.693,621.373L426.693,621.373z"/>
			
				<linearGradient id="SVGID_00000080166724521010136810000010494948378635731340_" gradientUnits="userSpaceOnUse" x1="401.0248" y1="562.6293" x2="401.0248" y2="679.9556">
				<stop  offset="0" style="stop-color:#FFCF2A"/>
				<stop  offset="1" style="stop-color:#CD0C62"/>
			</linearGradient>
			<path style="fill:url(#SVGID_00000080166724521010136810000010494948378635731340_);" d="M428.603,586.857
				c-0.511-0.511-1.035-1.007-1.568-1.495c-0.179-0.164-0.364-0.322-0.545-0.483c-0.358-0.318-0.718-0.632-1.085-0.939
				c-0.226-0.19-0.456-0.375-0.686-0.561c-0.33-0.266-0.663-0.528-0.999-0.785c-0.256-0.196-0.512-0.39-0.772-0.581
				c-0.318-0.233-0.641-0.46-0.965-0.686c-0.28-0.195-0.558-0.393-0.843-0.583c-0.297-0.198-0.601-0.387-0.903-0.579
				c-0.724-0.46-1.459-0.903-2.208-1.325c-0.135-0.076-0.268-0.157-0.404-0.232c-0.431-0.238-0.869-0.462-1.307-0.687
				c-0.188-0.096-0.374-0.195-0.563-0.289c-0.452-0.224-0.909-0.439-1.368-0.649c-0.169-0.077-0.338-0.154-0.507-0.229
				c-0.49-0.218-0.984-0.429-1.483-0.63c-0.111-0.045-0.223-0.088-0.335-0.132c-3.008-1.193-6.162-2.093-9.429-2.671
				c-0.017-0.003-0.033-0.006-0.05-0.009c-2.761-0.485-5.596-0.752-8.496-0.752v16.207c2.223,0,4.394,0.224,6.492,0.648
				c0.733,0.148,1.455,0.327,2.169,0.524c0.139,0.038,0.278,0.078,0.417,0.118c1.407,0.407,2.774,0.905,4.096,1.49
				c0.138,0.061,0.275,0.123,0.412,0.186c1.302,0.597,2.557,1.278,3.76,2.035c0.138,0.087,0.275,0.175,0.412,0.264
				c0.586,0.381,1.164,0.775,1.723,1.193c0.005,0.004,0.01,0.007,0.015,0.011c0.562,0.419,1.104,0.863,1.637,1.317
				c0.131,0.111,0.26,0.224,0.389,0.337c0.525,0.462,1.04,0.934,1.534,1.428c5.901,5.901,9.55,14.052,9.55,23.056v0
				c0,18.008-14.598,32.606-32.606,32.606h0c-9.223,0-17.546-3.836-23.477-9.992l-11.46,11.46
				c8.865,9.088,21.238,14.738,34.937,14.738h0c26.959,0,48.813-21.854,48.813-48.813v0
				C442.9,607.894,437.436,595.691,428.603,586.857z"/>
			<g style="opacity:0.65;">
				<path style="fill:#DBDDDF;" d="M397.16,657.052L397.16,657.052c18.008,0,32.606-14.598,32.606-32.606v0
					c0-9.786-4.317-18.558-11.144-24.535c5.021,5.735,8.071,13.24,8.071,21.462v0c0,18.008-14.598,32.606-32.606,32.606h0
					c-8.222,0-15.727-3.049-21.462-8.071C378.602,652.735,387.374,657.052,397.16,657.052z"/>
				<path style="fill:#DBDDDF;" d="M348.347,624.447L348.347,624.447c0-26.959,21.854-48.813,48.813-48.813h0
					c12.697,0,24.26,4.851,32.943,12.797c-8.925-9.752-21.755-15.87-36.016-15.87h0c-26.959,0-48.813,21.854-48.813,48.813v0
					c0,14.261,6.118,27.091,15.87,36.016C353.198,648.707,348.347,637.144,348.347,624.447z"/>
			</g>
			<g>
				<path style="fill:#2D3D91;" d="M394.087,594.822L394.087,594.822c-14.664,0-26.551,11.887-26.551,26.551v0
					c0,14.664,11.887,26.551,26.551,26.551l0,0c14.664,0,26.551-11.887,26.551-26.551v0
					C420.638,606.71,408.751,594.822,394.087,594.822z"/>
			</g>
		</g>
		<g id="XMLID_166_">
			
				<text id="XMLID_167_" transform="matrix(1 0 0 1 373.5072 623.5586)" style="fill:#FFFFFF; font-family:'Montserrat-Regular'; font-size:7.6948px;">Fellowship</text>
		</g>
	</g>
	<g>
		<path style="fill:#FFFFFF;" d="M502.966,572.561L502.966,572.561c-26.959,0-48.813,21.854-48.813,48.813v0
			c0,26.959,21.854,48.813,48.813,48.813h0c26.959,0,48.813-21.854,48.813-48.813v0
			C551.779,594.415,529.924,572.561,502.966,572.561z M535.571,621.373c0,18.008-14.598,32.606-32.606,32.606h0
			c-18.007,0-32.606-14.598-32.606-32.606v0c0-18.007,14.598-32.605,32.606-32.605h0
			C520.973,588.768,535.571,603.366,535.571,621.373L535.571,621.373z"/>
		
			<linearGradient id="SVGID_00000168836746621997594950000009307132715018517433_" gradientUnits="userSpaceOnUse" x1="526.881" y1="561.724" x2="526.881" y2="676.7659">
			<stop  offset="0" style="stop-color:#8D348B"/>
			<stop  offset="1" style="stop-color:#324093"/>
		</linearGradient>
		<path style="fill:url(#SVGID_00000168836746621997594950000009307132715018517433_);" d="M502.966,572.561L502.966,572.561
			c-0.329,0-0.654,0.018-0.982,0.025v16.207c0.327-0.01,0.653-0.025,0.982-0.025h0c18.008,0,32.606,14.598,32.606,32.606v0
			c0,9.558-4.113,18.155-10.665,24.119c-0.161,0.147-0.33,0.286-0.494,0.429c-0.221,0.193-0.439,0.389-0.665,0.576
			c-0.229,0.189-0.465,0.369-0.699,0.552c-0.168,0.131-0.332,0.267-0.502,0.395c-0.284,0.214-0.576,0.418-0.867,0.622
			c-0.125,0.088-0.246,0.179-0.372,0.265c-0.331,0.226-0.67,0.442-1.01,0.655c-0.09,0.057-0.178,0.117-0.269,0.173
			c-0.379,0.233-0.764,0.456-1.153,0.673c-0.054,0.03-0.106,0.062-0.16,0.092c-0.42,0.232-0.847,0.454-1.278,0.668
			c-0.024,0.012-0.047,0.024-0.071,0.036c-4.133,2.034-8.759,3.218-13.651,3.329v0.003c-0.25,0.006-0.498,0.019-0.75,0.019h0
			c-0.329,0-0.655-0.015-0.982-0.025v16.207c0.328,0.006,0.653,0.025,0.982,0.025h0c7.69,0,14.962-1.784,21.433-4.952
			c0.019-0.009,0.037-0.019,0.056-0.029c0.672-0.33,1.337-0.673,1.992-1.033c0.063-0.035,0.124-0.073,0.188-0.108
			c0.609-0.338,1.212-0.685,1.805-1.048c0.112-0.069,0.22-0.143,0.331-0.212c0.54-0.337,1.078-0.679,1.604-1.036
			c0.168-0.114,0.33-0.237,0.497-0.354c0.463-0.323,0.926-0.646,1.377-0.985c0.235-0.176,0.461-0.364,0.693-0.545
			c0.375-0.292,0.752-0.579,1.118-0.882c0.321-0.265,0.629-0.544,0.943-0.817c0.268-0.233,0.542-0.459,0.804-0.698
			c0.571-0.52,1.13-1.052,1.676-1.598c8.833-8.833,14.297-21.037,14.297-34.516v0C551.779,594.415,529.924,572.561,502.966,572.561z
			"/>
		<g style="opacity:0.65;">
			<path style="fill:#898B8E;" d="M506.039,657.052L506.039,657.052c18.008,0,32.606-14.598,32.606-32.606v0
				c0-9.786-4.317-18.558-11.144-24.535c5.021,5.735,8.071,13.24,8.071,21.462v0c0,18.008-14.598,32.606-32.606,32.606h0
				c-8.222,0-15.727-3.049-21.462-8.071C487.48,652.735,496.253,657.052,506.039,657.052z"/>
			<path style="fill:#DBDDDF;" d="M457.226,624.447L457.226,624.447c0-26.959,21.854-48.813,48.813-48.813h0
				c12.697,0,24.26,4.851,32.943,12.797c-8.925-9.752-21.755-15.87-36.016-15.87h0c-26.958,0-48.813,21.854-48.813,48.813v0
				c0,14.261,6.118,27.091,15.87,36.016C462.077,648.707,457.226,637.144,457.226,624.447z"/>
		</g>
		<g>
			<path style="fill:#2D3D91;" d="M502.966,594.822L502.966,594.822c-14.664,0-26.551,11.887-26.551,26.551l0,0
				c0,14.664,11.887,26.551,26.551,26.551h0c14.664,0,26.551-11.887,26.551-26.551l0,0
				C529.517,606.71,517.629,594.822,502.966,594.822z"/>
		</g>
		
			<text id="XMLID_177_" transform="matrix(1 0 0 1 483.1249 623.5586)" style="fill:#FFFFFF; font-family:'Montserrat-Regular'; font-size:7.6948px;">Puntuality</text>
	</g>
	<g>
		<path style="fill:#FFFFFF;" d="M502.966,686.279L502.966,686.279c-26.959,0-48.813,21.854-48.813,48.813v0
			c0,26.958,21.854,48.813,48.813,48.813h0c26.959,0,48.813-21.854,48.813-48.813v0
			C551.779,708.133,529.924,686.279,502.966,686.279z M535.571,735.092c0,18.008-14.598,32.606-32.606,32.606h0
			c-18.007,0-32.606-14.598-32.606-32.606v0c0-18.007,14.598-32.605,32.606-32.605h0
			C520.973,702.486,535.571,717.084,535.571,735.092L535.571,735.092z"/>
		
			<linearGradient id="SVGID_00000041999058893285030460000017829079790270500996_" gradientUnits="userSpaceOnUse" x1="502.9736" y1="685.8591" x2="502.9736" y2="775.938">
			<stop  offset="0" style="stop-color:#56C4F2"/>
			<stop  offset="1" style="stop-color:#345DA8"/>
		</linearGradient>
		<path style="fill:url(#SVGID_00000041999058893285030460000017829079790270500996_);" d="M540.392,766.419
			c0.009-0.011,0.018-0.021,0.027-0.031c7.088-8.474,11.36-19.384,11.36-31.296v0c0-26.958-21.854-48.813-48.813-48.813h0
			c-0.329,0-0.654,0.018-0.982,0.025v16.207c0.327-0.01,0.653-0.025,0.982-0.025h0c18.008,0,32.606,14.598,32.606,32.606v0
			c0,0.21-0.012,0.417-0.016,0.627c-0.126,6.641-2.236,12.796-5.762,17.897c-0.006,0.009-0.013,0.018-0.019,0.027
			c-0.287,0.414-0.583,0.821-0.888,1.221c-0.014,0.018-0.029,0.036-0.043,0.055c-0.298,0.389-0.605,0.772-0.92,1.147
			c-0.024,0.028-0.049,0.055-0.072,0.083c-0.308,0.364-0.623,0.722-0.947,1.073c-0.034,0.036-0.069,0.071-0.102,0.107
			c-0.316,0.339-0.638,0.672-0.968,0.998c-0.047,0.046-0.096,0.091-0.144,0.137c-0.321,0.312-0.646,0.619-0.979,0.918
			c-0.061,0.055-0.125,0.107-0.187,0.162c-0.323,0.286-0.65,0.567-0.985,0.84c-0.078,0.063-0.158,0.123-0.236,0.186
			c-0.324,0.259-0.65,0.515-0.984,0.762c-0.093,0.069-0.19,0.134-0.284,0.202c-0.324,0.234-0.649,0.466-0.982,0.688
			c-0.111,0.074-0.226,0.144-0.338,0.217c-0.321,0.209-0.642,0.416-0.971,0.614c-0.131,0.079-0.265,0.151-0.397,0.228
			c-0.317,0.185-0.634,0.369-0.957,0.543c-0.147,0.079-0.297,0.151-0.445,0.228c-0.314,0.163-0.627,0.326-0.947,0.479
			c-0.167,0.08-0.338,0.152-0.507,0.229c-0.307,0.14-0.613,0.282-0.925,0.413c-0.188,0.079-0.379,0.149-0.569,0.224
			c-0.298,0.119-0.595,0.24-0.898,0.35c-0.211,0.077-0.426,0.144-0.639,0.216c-0.287,0.098-0.573,0.199-0.864,0.289
			c-0.229,0.071-0.462,0.131-0.693,0.197c-0.281,0.08-0.56,0.164-0.843,0.237c-0.248,0.063-0.499,0.115-0.749,0.173
			c-0.272,0.063-0.542,0.13-0.817,0.186c-0.272,0.055-0.549,0.099-0.824,0.147c-0.257,0.045-0.512,0.097-0.771,0.136
			c-0.305,0.046-0.615,0.079-0.922,0.117c-0.233,0.029-0.464,0.064-0.698,0.088c-0.349,0.035-0.702,0.056-1.054,0.08
			c-0.198,0.013-0.394,0.034-0.593,0.044c-0.55,0.028-1.104,0.042-1.661,0.042c-0.002,0-0.004,0-0.006,0h0
			c-0.329,0-0.655-0.015-0.982-0.025v0c-17.344-0.515-31.28-14.566-31.608-31.956h-16.207c0.336,26.669,22.048,48.188,48.797,48.188
			h0h0c0.003,0,0.006,0,0.009,0c0.836,0,1.667-0.021,2.492-0.063c0.315-0.016,0.625-0.049,0.938-0.071
			c0.511-0.036,1.024-0.065,1.53-0.116c0.369-0.037,0.732-0.093,1.098-0.138c0.445-0.055,0.893-0.102,1.335-0.169
			c0.387-0.059,0.768-0.136,1.152-0.204c0.414-0.073,0.831-0.138,1.242-0.222c0.408-0.083,0.81-0.185,1.215-0.278
			c0.378-0.087,0.76-0.166,1.135-0.262c0.433-0.111,0.858-0.24,1.286-0.362c0.339-0.097,0.682-0.185,1.018-0.289
			c0.452-0.14,0.896-0.298,1.343-0.451c0.304-0.104,0.611-0.199,0.912-0.309c0.468-0.17,0.927-0.359,1.388-0.543
			c0.271-0.108,0.546-0.208,0.815-0.321c0.485-0.204,0.961-0.426,1.438-0.645c0.236-0.108,0.476-0.209,0.709-0.321
			c0.499-0.239,0.988-0.495,1.477-0.75c0.204-0.106,0.412-0.205,0.614-0.314c0.51-0.275,1.01-0.567,1.509-0.86
			c0.173-0.101,0.35-0.196,0.521-0.299c0.52-0.314,1.029-0.643,1.536-0.976c0.143-0.094,0.289-0.181,0.431-0.276
			c0.527-0.354,1.044-0.723,1.556-1.096c0.114-0.083,0.231-0.161,0.344-0.244c0.531-0.394,1.049-0.802,1.563-1.216
			c0.088-0.071,0.18-0.139,0.268-0.211c0.533-0.436,1.054-0.886,1.568-1.344c0.063-0.056,0.128-0.109,0.19-0.165
			c0.529-0.476,1.046-0.966,1.553-1.465c0.044-0.043,0.089-0.083,0.132-0.126c0.523-0.517,1.031-1.046,1.53-1.586
			c0.025-0.027,0.052-0.054,0.077-0.081C539.405,767.571,539.904,767,540.392,766.419z"/>
		<g style="opacity:0.65;">
			<path style="fill:#898B8E;" d="M506.039,770.771L506.039,770.771c18.008,0,32.606-14.598,32.606-32.606v0
				c0-9.786-4.317-18.558-11.144-24.535c5.021,5.735,8.071,13.24,8.071,21.462v0c0,18.008-14.598,32.606-32.606,32.606h0
				c-8.222,0-15.727-3.049-21.462-8.071C487.48,766.453,496.253,770.771,506.039,770.771z"/>
			<path style="fill:#DBDDDF;" d="M457.226,738.165L457.226,738.165c0-26.959,21.854-48.813,48.813-48.813h0
				c12.697,0,24.26,4.851,32.943,12.797c-8.925-9.752-21.755-15.87-36.016-15.87h0c-26.958,0-48.813,21.854-48.813,48.813v0
				c0,14.261,6.118,27.091,15.87,36.016C462.077,762.425,457.226,750.862,457.226,738.165z"/>
		</g>
		<g>
			<path style="fill:#2D3D91;" d="M502.966,708.541L502.966,708.541c-14.664,0-26.551,11.887-26.551,26.551l0,0
				c0,14.664,11.887,26.551,26.551,26.551h0c14.664,0,26.551-11.887,26.551-26.551l0,0
				C529.517,720.428,517.629,708.541,502.966,708.541z"/>
		</g>
		<g id="XMLID_178_">
			
				<text id="XMLID_179_" transform="matrix(1 0 0 1 486.222 737.7061)" style="fill:#FFFFFF; font-family:'Montserrat-Regular'; font-size:7.6948px;">Learning</text>
		</g>
	</g>
	<g>
		<path style="fill:#FFFFFF;" d="M394.087,686.279L394.087,686.279c-26.959,0-48.813,21.854-48.813,48.813v0
			c0,26.958,21.854,48.813,48.813,48.813h0c26.958,0,48.813-21.854,48.813-48.813v0C442.9,708.133,421.045,686.279,394.087,686.279z
			 M426.693,735.092c0,18.008-14.598,32.606-32.606,32.606h0c-18.008,0-32.606-14.598-32.606-32.606v0
			c0-18.008,14.598-32.606,32.606-32.606h0C412.094,702.486,426.693,717.084,426.693,735.092L426.693,735.092z"/>
		
			<linearGradient id="SVGID_00000034055703370212178880000017828419230060006808_" gradientUnits="userSpaceOnUse" x1="394.0869" y1="798.5652" x2="394.0869" y2="700.3344">
			<stop  offset="0" style="stop-color:#FFDA6D"/>
			<stop  offset="1" style="stop-color:#FFF2A6"/>
		</linearGradient>
		<path style="fill:url(#SVGID_00000034055703370212178880000017828419230060006808_);" d="M394.087,686.279L394.087,686.279
			c-0.158,0-0.313,0.01-0.47,0.012v16.207c0.157-0.002,0.312-0.012,0.47-0.012h0c18.007,0,32.605,14.598,32.605,32.605v0
			c0,18.008-14.598,32.606-32.605,32.606h0c-18.008,0-32.606-14.598-32.606-32.606v0c0-0.483,0.014-0.962,0.035-1.44h0.001
			c0.02-0.466,0.054-0.929,0.094-1.391c0.006-0.067,0.009-0.136,0.015-0.203c0.027-0.291,0.066-0.579,0.1-0.868
			c0.03-0.246,0.054-0.493,0.089-0.737c0.012-0.087,0.03-0.173,0.043-0.26c0.065-0.427,0.133-0.852,0.214-1.273h-0.001
			c1.25-6.529,4.443-12.367,8.96-16.884l-11.46-11.46c-7.462,7.463-12.507,17.333-13.894,28.344h-0.001
			c-0.006,0.047-0.008,0.095-0.014,0.142c-0.1,0.811-0.178,1.629-0.238,2.452c-0.038,0.499-0.058,1.003-0.08,1.507
			c-0.009,0.211-0.028,0.42-0.034,0.631h0.012c-0.015,0.48-0.049,0.956-0.049,1.44v0c0,26.958,21.854,48.813,48.813,48.813h0
			c26.958,0,48.813-21.854,48.813-48.813v0C442.9,708.133,421.045,686.279,394.087,686.279z"/>
		<g style="opacity:0.65;">
			<path style="fill:#DBDDDF;" d="M397.16,770.771L397.16,770.771c18.008,0,32.606-14.598,32.606-32.606v0
				c0-9.786-4.317-18.559-11.144-24.535c5.021,5.735,8.071,13.24,8.071,21.462v0c0,18.008-14.598,32.606-32.606,32.606h0
				c-8.222,0-15.727-3.05-21.462-8.071C378.602,766.454,387.374,770.771,397.16,770.771z"/>
			<path style="fill:#DBDDDF;" d="M348.347,738.165L348.347,738.165c0-26.959,21.854-48.813,48.813-48.813h0
				c12.697,0,24.26,4.851,32.943,12.797c-8.925-9.752-21.755-15.87-36.016-15.87h0c-26.959,0-48.813,21.854-48.813,48.813v0
				c0,14.261,6.118,27.091,15.87,36.016C353.198,762.425,348.347,750.862,348.347,738.165z"/>
		</g>
		<g>
			<g>
				<path style="fill:#2D3D91;" d="M394.087,708.541L394.087,708.541c-14.664,0-26.551,11.887-26.551,26.551l0,0
					c0,14.664,11.887,26.551,26.551,26.551h0c14.664,0,26.551-11.887,26.551-26.551l0,0
					C420.638,720.428,408.75,708.541,394.087,708.541z"/>
			</g>
			<g id="XMLID_182_">
				
					<text id="XMLID_183_" transform="matrix(1 0 0 1 383.4531 737.2773)" style="fill:#FFFFFF; font-family:'Montserrat-Regular'; font-size:7.6948px;">Effort</text>
			</g>
		</g>
	</g>
</g>
</svg>
