<svg xmlns="http://www.w3.org/2000/svg" viewBox="0 0 900 600">
  <defs>
    <linearGradient id="g3" x1="0" x2="1">
      <stop offset="0" stop-color="#f6f4ff"/>
      <stop offset="1" stop-color="#ffffff"/>
    </linearGradient>
    <filter id="cardShadow3" x="-50%" y="-50%" width="200%" height="200%">
      <feDropShadow dx="0" dy="20" stdDeviation="28" flood-color="#ece6ff" flood-opacity="0.6"/>
    </filter>
  </defs>

  <rect width="900" height="600" fill="#fbfbff"/>

  <rect x="590" y="40" width="260" height="420" rx="18" fill="url(#g3)" filter="url(#cardShadow3)"/>
  <rect x="618" y="70" width="204" height="320" rx="10" fill="#ffffff" stroke="#f2ecff"/>

  <rect x="638" y="92" width="56" height="56" rx="28" fill="#e9ddff"/>
  <rect x="706" y="98" width="120" height="18" rx="6" fill="#7c3aed"/>
  <rect x="706" y="120" width="120" height="12" rx="6" fill="#b79cff"/>

  <rect x="638" y="170" width="188" height="12" rx="6" fill="#f7f3ff"/>
  <rect x="638" y="192" width="188" height="12" rx="6" fill="#f7f3ff"/>
  <rect x="638" y="214" width="140" height="12" rx="6" fill="#faf7ff"/>

  <rect x="638" y="250" width="84" height="12" rx="6" fill="#f7f3ff"/>
  <rect x="638" y="272" width="170" height="12" rx="6" fill="#faf7ff"/>

  <rect x="590" y="380" width="260" height="120" rx="18" fill="#ffffff"/>
  <text x="630" y="420" font-family="Inter, Arial" font-size="20" font-weight="700" fill="#0f172a">Creative Bold</text>
  <text x="630" y="443" font-family="Inter, Arial" font-size="13" fill="#6b7280">Stand out with vibrant design</text>
  <rect x="630" y="465" width="120" height="36" rx="8" fill="#7c3aed"/>
  <text x="690" y="489" font-family="Inter, Arial" font-size="14" font-weight="700" fill="#fff" text-anchor="middle">Use Template</text>
</svg>