<svg viewBox="0 0 300 400" xmlns="http://www.w3.org/2000/svg">
  <!-- Background -->
  <defs>
    <linearGradient id="creativePlusBg" x1="0%" y1="0%" x2="100%" y2="100%">
      <stop offset="0%" style="stop-color:#f0f9ff;stop-opacity:1" />
      <stop offset="100%" style="stop-color:#e0f7ff;stop-opacity:1" />
    </linearGradient>
  </defs>
  <rect width="300" height="400" fill="url(#creativePlusBg)"/>
  
  <!-- Header with Gradient -->
  <defs>
    <linearGradient id="creativePlusGrad" x1="0%" y1="0%" x2="100%" y2="100%">
      <stop offset="0%" style="stop-color:#6dd5ed;stop-opacity:1" />
      <stop offset="100%" style="stop-color:#2193b0;stop-opacity:1" />
    </linearGradient>
  </defs>
  <rect width="300" height="100" fill="url(#creativePlusGrad)"/>
  
  <!-- Decorative Shapes -->
  <circle cx="35" cy="25" r="18" fill="#ffffff" opacity="0.15"/>
  <circle cx="255" cy="65" r="22" fill="#ffffff" opacity="0.1"/>
  <rect x="10" y="80" width="35" height="35" fill="#ffffff" opacity="0.08" transform="rotate(45 27 97)"/>
  
  <!-- Header Content -->
  <text x="20" y="48" font-size="20" font-weight="bold" fill="#ffffff" font-family="Arial">Victoria Lane</text>
  <text x="20" y="70" font-size="12" fill="#ffffff" font-family="Arial">Brand Strategist & Designer</text>
  <text x="20" y="88" font-size="9" fill="#e0f7ff" font-family="Arial">victoria@brandlab.com | +91-98765-12345</text>
  
  <!-- Profile Summary -->
  <text x="20" y="125" font-size="10" font-weight="bold" fill="#2193b0" font-family="Arial">◆ BRAND EXPERTISE</text>
  <rect x="20" y="131" width="260" height="2.5" fill="#6dd5ed"/>
  <text x="20" y="152" font-size="8" fill="#333333" font-family="Arial">Strategic brand designer transforming companies through visual</text>
  <text x="20" y="165" font-size="8" fill="#333333" font-family="Arial">storytelling, digital innovation, and creative excellence.</text>
  
  <!-- Experience with Color Blocks -->
  <text x="20" y="190" font-size="10" font-weight="bold" fill="#2193b0" font-family="Arial">◆ PROFESSIONAL JOURNEY</text>
  <rect x="20" y="196" width="260" height="2.5" fill="#6dd5ed"/>
  
  <!-- Block 1 -->
  <rect x="20" y="218" width="8" height="8" fill="#6dd5ed" rx="1"/>
  <text x="35" y="226" font-size="9" font-weight="bold" fill="#1a1a2e" font-family="Arial">Creative Director • BrandLab Studio</text>
  <text x="35" y="239" font-size="7" fill="#666666" font-family="Arial">2022-Present • 40+ Global Brand Transformations</text>
  
  <!-- Block 2 -->
  <rect x="20" y="255" width="8" height="8" fill="#2193b0" rx="1"/>
  <text x="35" y="263" font-size="9" font-weight="bold" fill="#1a1a2e" font-family="Arial">Senior Brand Designer • Innovation Agency</text>
  <text x="35" y="276" font-size="7" fill="#666666" font-family="Arial">2019-2022 • Led 100+ Creative Projects</text>
  
  <!-- Skills Grid -->
  <text x="20" y="300" font-size="10" font-weight="bold" fill="#2193b0" font-family="Arial">◆ CORE COMPETENCIES</text>
  <rect x="20" y="306" width="260" height="2.5" fill="#6dd5ed"/>
  
  <rect x="20" y="320" width="22" height="22" fill="#6dd5ed" rx="3"/>
  <rect x="48" y="320" width="22" height="22" fill="#2193b0" rx="3"/>
  <rect x="76" y="320" width="22" height="22" fill="#6dd5ed" rx="3"/>
  <rect x="104" y="320" width="22" height="22" fill="#2193b0" rx="3"/>
  <rect x="132" y="320" width="22" height="22" fill="#6dd5ed" rx="3"/>
  <rect x="160" y="320" width="22" height="22" fill="#2193b0" rx="3"/>
  
  <text x="31" y="337" font-size="5" fill="#ffffff" font-family="Arial" text-anchor="middle">Branding</text>
  <text x="59" y="337" font-size="5" fill="#ffffff" font-family="Arial" text-anchor="middle">Design</text>
  <text x="87" y="337" font-size="5" fill="#ffffff" font-family="Arial" text-anchor="middle">Digital</text>
  <text x="115" y="337" font-size="5" fill="#ffffff" font-family="Arial" text-anchor="middle">Strategy</text>
  <text x="143" y="337" font-size="5" fill="#ffffff" font-family="Arial" text-anchor="middle">Innovation</text>
  <text x="171" y="337" font-size="5" fill="#ffffff" font-family="Arial" text-anchor="middle">Creative</text>
  
  <!-- Portfolio Box -->
  <rect x="15" y="360" width="270" height="30" fill="#ffffff" stroke="#6dd5ed" stroke-width="1.5" rx="5"/>
  <text x="150" y="380" font-size="9" font-weight="bold" fill="#2193b0" font-family="Arial" text-anchor="middle">✦ Portfolio: Victoria.Design • Award Winner</text>
</svg>