<svg viewBox="0 0 300 400" xmlns="http://www.w3.org/2000/svg">
  <!-- Background with gradient -->
  <defs>
    <linearGradient id="creativeBg" x1="0%" y1="0%" x2="100%" y2="100%">
      <stop offset="0%" style="stop-color:#fff5f7;stop-opacity:1" />
      <stop offset="100%" style="stop-color:#ffe4e9;stop-opacity:1" />
    </linearGradient>
  </defs>
  <rect width="300" height="400" fill="url(#creativeBg)"/>
  
  <!-- Colorful Header -->
  <defs>
    <linearGradient id="creativeGrad" x1="0%" y1="0%" x2="100%" y2="100%">
      <stop offset="0%" style="stop-color:#f093fb;stop-opacity:1" />
      <stop offset="100%" style="stop-color:#f5576c;stop-opacity:1" />
    </linearGradient>
  </defs>
  <rect width="300" height="95" fill="url(#creativeGrad)"/>
  
  <!-- Decorative Elements -->
  <circle cx="270" cy="30" r="18" fill="#ffffff" opacity="0.25"/>
  <circle cx="35" cy="80" r="12" fill="#ffffff" opacity="0.2"/>
  
  <!-- Header Content -->
  <text x="20" y="45" font-size="22" font-weight="bold" fill="#ffffff" font-family="Arial">Alex Morgan</text>
  <text x="20" y="67" font-size="13" fill="#ffffff" font-family="Arial">Creative Director & Designer</text>
  <text x="20" y="85" font-size="9" fill="#ffffff" font-family="Arial">alex.morgan@email.com | +91-98765-43210</text>
  
  <!-- About Section -->
  <rect x="15" y="115" width="270" height="50" fill="#ffffff" rx="6" opacity="0.95"/>
  <text x="25" y="135" font-size="11" font-weight="bold" fill="#f5576c" font-family="Arial">✦ CREATIVE PROFILE</text>
  <text x="25" y="152" font-size="8" fill="#333333" font-family="Arial">Award-winning creative professional with 10+ years expertise in brand</text>
  <text x="25" y="163" font-size="8" fill="#333333" font-family="Arial">design, digital campaigns, and visual storytelling.</text>
  
  <!-- Experience Section -->
  <text x="20" y="190" font-size="11" font-weight="bold" fill="#f5576c" font-family="Arial">▸ EXPERIENCE</text>
  <line x1="20" y1="196" x2="280" y2="196" stroke="#f093fb" stroke-width="2"/>
  
  <!-- Experience Items with Colors -->
  <circle cx="28" cy="220" r="5" fill="#f093fb"/>
  <text x="40" y="224" font-size="9" font-weight="bold" fill="#1a1a2e" font-family="Arial">Creative Lead • Design Studio</text>
  <text x="40" y="237" font-size="7" fill="#666666" font-family="Arial">2022-Present • Led 15+ award-winning campaigns</text>
  
  <circle cx="28" cy="260" r="5" fill="#f5576c"/>
  <text x="40" y="264" font-size="9" font-weight="bold" fill="#1a1a2e" font-family="Arial">Senior Designer • Brand Agency</text>
  <text x="40" y="277" font-size="7" fill="#666666" font-family="Arial">2019-2022 • Managed visual identity for 50+ clients</text>
  
  <!-- Skills Section -->
  <text x="20" y="305" font-size="11" font-weight="bold" fill="#f5576c" font-family="Arial">▸ SKILLS</text>
  <line x1="20" y1="311" x2="280" y2="311" stroke="#f093fb" stroke-width="2"/>
  
  <rect x="20" y="325" width="22" height="22" fill="#f093fb" rx="3"/>
  <rect x="47" y="325" width="22" height="22" fill="#f5576c" rx="3"/>
  <rect x="74" y="325" width="22" height="22" fill="#ff99bb" rx="3"/>
  <rect x="101" y="325" width="22" height="22" fill="#f093fb" rx="3"/>
  <rect x="128" y="325" width="22" height="22" fill="#f5576c" rx="3"/>
  
  <text x="31" y="342" font-size="6" fill="#ffffff" font-family="Arial" text-anchor="middle">Design</text>
  <text x="58" y="342" font-size="6" fill="#ffffff" font-family="Arial" text-anchor="middle">Adobe</text>
  <text x="85" y="342" font-size="6" fill="#ffffff" font-family="Arial" text-anchor="middle">Figma</text>
  <text x="112" y="342" font-size="6" fill="#ffffff" font-family="Arial" text-anchor="middle">Branding</text>
  <text x="139" y="342" font-size="6" fill="#ffffff" font-family="Arial" text-anchor="middle">Digital</text>
  
  <!-- Awards -->
  <rect x="20" y="360" width="260" height="25" fill="#ffffff" stroke="#f5576c" stroke-width="1.5" rx="4"/>
  <text x="155" y="378" font-size="9" font-weight="bold" fill="#f5576c" font-family="Arial" text-anchor="middle">🏆 15+ Design Awards | Recognized Leader</text>
</svg>