<svg viewBox="0 0 300 400" xmlns="http://www.w3.org/2000/svg">
  <!-- Background -->
  <rect width="300" height="400" fill="#ffffff"/>
  
  <!-- Modern Header -->
  <rect width="300" height="90" fill="#1a1a2e"/>
  <text x="20" y="40" font-size="20" font-weight="bold" fill="#ffffff" font-family="Arial">John Anderson</text>
  <text x="20" y="62" font-size="12" fill="#2f80ed" font-family="Arial">Full Stack Developer</text>
  <text x="20" y="78" font-size="9" fill="#aaaaaa" font-family="Arial">john.anderson@email.com | +91-98765-43210 | LinkedIn</text>
  
  <!-- Left Sidebar -->
  <rect x="0" y="90" width="85" height="310" fill="#f5f5f5"/>
  <text x="12" y="115" font-size="11" font-weight="bold" fill="#1a1a2e" font-family="Arial">SKILLS</text>
  <line x1="12" y1="120" x2="75" y2="120" stroke="#1a1a2e" stroke-width="1.5"/>
  
  <rect x="12" y="135" width="55" height="4" fill="#2f80ed"/>
  <text x="12" y="150" font-size="9" fill="#333333" font-family="Arial">React</text>
  
  <rect x="12" y="160" width="50" height="4" fill="#2f80ed"/>
  <text x="12" y="175" font-size="9" fill="#333333" font-family="Arial">Node.js</text>
  
  <rect x="12" y="185" width="48" height="4" fill="#2f80ed"/>
  <text x="12" y="200" font-size="9" fill="#333333" font-family="Arial">Python</text>
  
  <rect x="12" y="210" width="52" height="4" fill="#2f80ed"/>
  <text x="12" y="225" font-size="9" fill="#333333" font-family="Arial">AWS</text>
  
  <rect x="12" y="235" width="55" height="4" fill="#2f80ed"/>
  <text x="12" y="250" font-size="9" fill="#333333" font-family="Arial">Docker</text>
  
  <!-- Main Content -->
  <text x="100" y="115" font-size="11" font-weight="bold" fill="#1a1a2e" font-family="Arial">EXPERIENCE</text>
  <line x1="100" y1="120" x2="285" y2="120" stroke="#2f80ed" stroke-width="1.5"/>
  
  <text x="100" y="142" font-size="10" font-weight="bold" fill="#1a1a2e" font-family="Arial">Senior Developer</text>
  <text x="100" y="157" font-size="8" fill="#666666" font-family="Arial">Tech Corporation | 2022-Present</text>
  <text x="100" y="170" font-size="8" fill="#666666" font-family="Arial">• Led team of 8 engineers • 95% uptime systems</text>
  
  <text x="100" y="195" font-size="10" font-weight="bold" fill="#1a1a2e" font-family="Arial">Full Stack Developer</text>
  <text x="100" y="210" font-size="8" fill="#666666" font-family="Arial">StartUp Inc | 2020-2022</text>
  <text x="100" y="223" font-size="8" fill="#666666" font-family="Arial">• Built 5 production applications • 200K+ users</text>
  
  <!-- Education Section -->
  <text x="100" y="250" font-size="11" font-weight="bold" fill="#1a1a2e" font-family="Arial">EDUCATION</text>
  <line x1="100" y1="255" x2="285" y2="255" stroke="#2f80ed" stroke-width="1.5"/>
  
  <text x="100" y="277" font-size="10" font-weight="bold" fill="#1a1a2e" font-family="Arial">B.Tech Computer Science</text>
  <text x="100" y="290" font-size="8" fill="#666666" font-family="Arial">University of Technology | 2020 | 3.8 GPA</text>
  
  <!-- Certifications -->
  <text x="100" y="315" font-size="11" font-weight="bold" fill="#1a1a2e" font-family="Arial">CERTIFICATIONS</text>
  <line x1="100" y1="320" x2="285" y2="320" stroke="#2f80ed" stroke-width="1.5"/>
  <text x="100" y="340" font-size="8" fill="#666666" font-family="Arial">AWS Solutions Architect | React Advanced Patterns</text>
  
  <!-- Bottom Accent -->
  <rect x="100" y="395" width="200" height="3" fill="#2f80ed"/>
</svg>